Coordinates
version=1
nRows=65
nColumns=12
inDegrees=yes

Units are S.I. units (second, meters, Newtons, ...)
Angles are in degrees

endheader
time	SC_y	SC_z	SC_x	AC_y	AC_z	AC_x	GH_y	GH_z	GH_yy	EL_x	PS_y
       0.0              -40.68          19.68          52.79          58.17        -0.9558         -2.403         -126.4          31.09          103.1          69.51          135.4
   0.03184              -40.68          19.68          52.78          58.17        -0.9577           -2.4         -126.4          31.09          103.1           69.5          135.4
   0.06369              -40.67          19.68          52.77          58.17        -0.9597         -2.398         -126.4           31.1          103.1          69.49          135.4
   0.09553              -40.67          19.68          52.77          58.17        -0.9619         -2.395         -126.3          31.11          103.1          69.48          135.4
    0.1274              -40.67          19.68          52.76          58.18        -0.9641         -2.392         -126.3          31.12          103.1          69.47          135.4
    0.1592              -40.67          19.68          52.75          58.18        -0.9666         -2.389         -126.3          31.13          103.1          69.46          135.4
    0.1911              -40.67          19.69          52.74          58.18        -0.9691         -2.386         -126.3          31.14          103.1          69.45          135.4
    0.2229              -40.67          19.69          52.73          58.18        -0.9719         -2.382         -126.3          31.15          103.1          69.44          135.4
    0.2548              -40.67          19.69          52.72          58.19        -0.9749         -2.378         -126.3          31.16          103.1          69.43          135.4
    0.2866              -40.67          19.69          52.71          58.19         -0.978         -2.374         -126.2          31.17          103.1          69.42          135.3
    0.3184              -40.67          19.69           52.7          58.19        -0.9814          -2.37         -126.2          31.19          103.1           69.4          135.3
    0.3503              -40.67           19.7          52.69           58.2        -0.9851         -2.365         -126.2           31.2          103.0          69.39          135.3
    0.3821              -40.66           19.7          52.67           58.2        -0.9891          -2.36         -126.2          31.21          103.0          69.37          135.3
     0.414              -40.66           19.7          52.66           58.2        -0.9933         -2.355         -126.1          31.23          103.0          69.35          135.3
    0.4458              -40.66          19.71          52.64          58.21         -0.998         -2.349         -126.1          31.25          103.0          69.33          135.3
    0.4777              -40.66          19.71          52.63          58.21         -1.003         -2.342         -126.1          31.27          103.0          69.31          135.3
    0.5095              -40.66          19.71          52.61          58.22         -1.008         -2.335         -126.0          31.29          103.0          69.29          135.3
    0.5414              -40.66          19.72          52.59          58.22         -1.014         -2.328         -126.0          31.31          103.0          69.27          135.3
    0.5732              -40.65          19.72          52.56          58.23         -1.021          -2.32         -126.0          31.34          102.9          69.24          135.3
     0.605              -40.65          19.72          52.54          58.23         -1.028          -2.31         -125.9          31.36          102.9          69.21          135.3
    0.6369              -40.65          19.73          52.51          58.24         -1.036         -2.301         -125.9          31.39          102.9          69.18          135.3
    0.6687              -40.65          19.74          52.48          58.25         -1.044          -2.29         -125.8          31.43          102.9          69.15          135.3
    0.7006              -40.64          19.74          52.45          58.26         -1.054         -2.277         -125.8          31.46          102.9          69.11          135.3
    0.7324              -40.64          19.75          52.41          58.27         -1.064         -2.264         -125.7           31.5          102.8          69.06          135.3
    0.7643              -40.64          19.76          52.37          58.28         -1.076         -2.249         -125.6          31.55          102.8          69.02          135.3
    0.7961              -40.63          19.76          52.33          58.29         -1.089         -2.233         -125.5           31.6          102.8          68.96          135.3
     0.828              -40.63          19.77          52.28           58.3         -1.104         -2.214         -125.4          31.65          102.7           68.9          135.3
    0.8598              -40.62          19.78          52.22          58.32          -1.12         -2.193         -125.3          31.72          102.7          68.84          135.3
    0.8916              -40.61           19.8          52.16          58.33         -1.138         -2.169         -125.2          31.79          102.6          68.76          135.3
    0.9235              -40.61          19.81          52.09          58.35          -1.16         -2.142         -125.1          31.87          102.6          68.68          135.3
    0.9553               -40.6          19.83           52.0          58.37         -1.184         -2.112         -124.9          31.96          102.5          68.58          135.3
    0.9872              -40.59          19.84          51.91           58.4         -1.211         -2.076         -124.7          32.07          102.4          68.47          135.3
     1.019              -40.58          19.86           51.8          58.42         -1.243         -2.036         -124.5          32.19          102.3          68.34          135.3
     1.051              -40.57          19.89          51.67          58.46          -1.28         -1.989         -124.3          32.33          102.2          68.19          135.2
     1.083              -40.55          19.92          51.52           58.5         -1.323         -1.933         -124.0           32.5          102.1          68.01          135.2
     1.115              -40.53          19.95          51.35          58.54         -1.374         -1.868         -123.7           32.7          101.9           67.8          135.2
     1.146              -40.51          19.99          51.14           58.6         -1.435         -1.791         -123.3          32.93          101.8          67.56          135.2
     1.178              -40.49          20.04          50.89          58.66         -1.507         -1.698         -122.8          33.21          101.6          67.26          135.2
      1.21              -40.46          20.09          50.59          58.74         -1.595         -1.586         -122.2          33.55          101.3           66.9          135.1
     1.242              -40.42          20.16          50.22          58.83         -1.703         -1.448         -121.5          33.96          101.0          66.47          135.1
     1.274              -40.38          20.25          49.76          58.95         -1.835         -1.279         -120.7          34.47          100.6          65.93          135.0
     1.306              -40.32          20.35          49.19           59.1         -2.001         -1.068         -119.6          35.11          100.2          65.26          135.0
     1.337              -40.25          20.49          48.47          59.28         -2.209         -0.802         -118.3          35.91          99.59          64.41          134.9
     1.369              -40.16          20.66          47.56          59.52         -2.473         -0.464         -116.6          36.93          98.84          63.33          134.8
     1.401              -40.05          20.88           46.4          59.82         -2.812       -0.03121         -114.4          38.23          97.88          61.96          134.7
     1.433               -39.9          21.16           44.9          60.21         -3.247         0.5241         -111.5           39.9          96.65          60.19          134.6
     1.465              -39.71          21.52          42.99           60.7         -3.802          1.233         -107.9          42.04          95.08          57.93          134.4
     1.497              -39.48          21.97          40.58          61.32         -4.501          2.125         -103.4          44.72           93.1          55.09          134.1
     1.529              -39.19          22.53          37.65          62.08         -5.351          3.212         -97.89           48.0          90.69          51.63          133.8
      1.56              -38.86          23.16          34.25          62.96         -6.338          4.472          -91.5          51.79           87.9          47.62          133.5
     1.592               -38.5          23.86          30.58          63.91         -7.406          5.836         -84.58           55.9          84.88          43.28          133.1
     1.624              -38.14          24.55           26.9          64.86         -8.474          7.201         -77.65          60.01          81.86          38.94          132.7
     1.656               -37.8          25.19           23.5          65.74          -9.46          8.461         -71.26          63.81          79.07          34.93          132.4
     1.688              -37.52          25.74          20.57           66.5         -10.31          9.547         -65.74          67.08          76.66          31.47          132.1
      1.72              -37.28          26.19          18.17          67.12         -11.01          10.44         -61.22          69.77          74.68          28.63          131.8
     1.751              -37.09          26.55          16.26          67.61         -11.56          11.15         -57.62           71.9          73.11          26.37          131.7
     1.783              -36.95          26.83          14.76           68.0          -12.0           11.7          -54.8          73.57          71.88           24.6          131.5
     1.815              -36.83          27.05          13.59           68.3         -12.34          12.14          -52.6          74.88          70.92          23.22          131.4
     1.847              -36.74          27.22          12.68          68.54          -12.6          12.47         -50.89           75.9          70.17          22.15          131.3
     1.879              -36.67          27.36          11.96          68.72         -12.81          12.74         -49.54           76.7          69.58           21.3          131.2
     1.911              -36.62          27.47          11.39          68.87         -12.98          12.95         -48.47          77.33          69.12          20.63          131.2
     1.943              -36.57          27.55          10.94          68.99         -13.11          13.12         -47.61          77.84          68.74          20.09          131.1
     1.974              -36.54          27.62          10.57          69.08         -13.22          13.26         -46.91          78.26          68.44          19.65          131.1
     2.006              -36.51          27.68          10.27          69.16          -13.3          13.37         -46.34          78.59          68.19           19.3          131.0
     2.038              -36.48          27.72          10.02          69.23         -13.38          13.46         -45.87          78.87          67.98           19.0          131.0
